<svg width="21" height="21" viewBox="0 0 21 21" fill="none" xmlns="http://www.w3.org/2000/svg">
<path d="M2.25369 6.04967L9.75369 10.0787C10.0057 10.2137 10.3317 10.2777 10.6597 10.2777C10.9877 10.2777 11.3137 10.2137 11.5657 10.0787L19.0657 6.04967C19.5547 5.78667 20.0167 4.76367 19.1197 4.76367H2.20069C1.30369 4.76367 1.76569 5.78667 2.25369 6.04967ZM19.2927 8.25267L11.5657 12.2797C11.2257 12.4577 10.9877 12.4787 10.6597 12.4787C10.3317 12.4787 10.0937 12.4577 9.75369 12.2797C9.41369 12.1017 2.62069 8.54067 2.06569 8.25167C1.67569 8.04767 1.67969 8.28667 1.67969 8.47067V15.7637C1.67969 16.1837 2.24569 16.7637 2.67969 16.7637H18.6797C19.1137 16.7637 19.6797 16.1837 19.6797 15.7637V8.47167C19.6797 8.28767 19.6837 8.04867 19.2927 8.25267Z" fill="#C4C4C4"/>
</svg>
