<svg width="30" height="28" viewBox="0 0 30 28" fill="none" xmlns="http://www.w3.org/2000/svg">
<g clip-path="url(#clip0)">
<path d="M29.5007 8.23208C29.4317 6.74433 29.1787 5.72152 28.8162 4.83523C28.4423 3.89447 27.867 3.0522 27.1133 2.35202C26.3769 1.64095 25.4852 1.08841 24.5073 0.738425C23.5697 0.393784 22.4996 0.153198 20.9349 0.0876025C19.3585 0.0164522 18.8581 0 14.8599 0C10.8617 0 10.3613 0.0164522 8.7907 0.0820473C7.22599 0.147642 6.15026 0.388443 5.21835 0.73287C4.22869 1.08841 3.34285 1.63539 2.60645 2.35202C1.85859 3.0522 1.27769 3.90002 0.909378 4.82989C0.546907 5.72152 0.293874 6.73877 0.224886 8.22652C0.150055 9.72538 0.132751 10.2012 0.132751 14.0027C0.132751 17.8043 0.150055 18.2801 0.219043 19.7734C0.288032 21.2611 0.541289 22.284 0.90376 23.1702C1.27769 24.111 1.85859 24.9533 2.60645 25.6534C3.34285 26.3645 4.23453 26.9171 5.21251 27.267C6.15026 27.6117 7.22014 27.8523 8.78508 27.9179C10.3554 27.9837 10.8561 27.9999 14.8543 27.9999C18.8525 27.9999 19.3529 27.9837 20.9235 27.9179C22.4882 27.8523 23.5639 27.6117 24.4958 27.267C26.4749 26.5395 28.0396 25.0518 28.8048 23.1702C29.167 22.2786 29.4203 21.2611 29.4893 19.7734C29.5583 18.2801 29.5756 17.8043 29.5756 14.0027C29.5756 10.2012 29.5697 9.72538 29.5007 8.23208ZM26.8488 19.664C26.7855 21.0315 26.5439 21.7699 26.3425 22.2622C25.8477 23.482 24.8295 24.4501 23.5466 24.9206C23.0289 25.112 22.2466 25.3417 20.814 25.4018C19.2608 25.4676 18.7949 25.4838 14.8657 25.4838C10.9365 25.4838 10.4649 25.4676 8.91722 25.4018C7.47902 25.3417 6.70239 25.112 6.18464 24.9206C5.54622 24.6962 4.96509 24.3407 4.49341 23.8758C4.00442 23.4217 3.63049 22.8747 3.39454 22.2677C3.19319 21.7754 2.95162 21.0315 2.88847 19.6696C2.81926 18.1927 2.80218 17.7496 2.80218 14.0136C2.80218 10.2777 2.81926 9.82922 2.88847 8.35793C2.95162 6.99047 3.19319 6.25205 3.39454 5.75976C3.63049 5.15253 4.00442 4.6002 4.49925 4.15151C4.97655 3.68657 5.55183 3.33103 6.19048 3.1069C6.70823 2.91546 7.4907 2.68577 8.92306 2.62551C10.4763 2.55992 10.9424 2.54347 14.8714 2.54347C18.8064 2.54347 19.2722 2.55992 20.8199 2.62551C22.2581 2.68577 23.0347 2.91546 23.5524 3.1069C24.1909 3.33103 24.772 3.68657 25.2437 4.15151C25.7327 4.60554 26.1066 5.15253 26.3425 5.75976C26.5439 6.25205 26.7855 6.99581 26.8488 8.35793C26.9178 9.83478 26.9351 10.2777 26.9351 14.0136C26.9351 17.7496 26.9178 18.1871 26.8488 19.664Z" fill="#AEA8A8"/>
<path d="M14.8599 6.80957C10.6835 6.80957 7.29501 10.0312 7.29501 14.0024C7.29501 17.9736 10.6835 21.1952 14.8599 21.1952C19.0365 21.1952 22.4248 17.9736 22.4248 14.0024C22.4248 10.0312 19.0365 6.80957 14.8599 6.80957ZM14.8599 18.6682C12.1505 18.6682 9.95276 16.5787 9.95276 14.0024C9.95276 11.426 12.1505 9.33658 14.8599 9.33658C17.5696 9.33658 19.7671 11.426 19.7671 14.0024C19.7671 16.5787 17.5696 18.6682 14.8599 18.6682Z" fill="#AEA8A8"/>
<path d="M24.4901 6.52538C24.4901 7.45269 23.6993 8.20458 22.7238 8.20458C21.7485 8.20458 20.9577 7.45269 20.9577 6.52538C20.9577 5.59786 21.7485 4.84619 22.7238 4.84619C23.6993 4.84619 24.4901 5.59786 24.4901 6.52538Z" fill="#AEA8A8"/>
</g>
<defs>
<clipPath id="clip0">
<rect width="29.4485" height="28" fill="white" transform="translate(0.0808716)"/>
</clipPath>
</defs>
</svg>
