<svg width="35" height="28" viewBox="0 0 35 28" fill="none" xmlns="http://www.w3.org/2000/svg">
<path d="M34.3529 3.32094C33.1616 3.96254 31.3673 4.25902 30.7725 4.34446C30.7676 4.31485 30.7626 4.28651 30.7577 4.25818C32.78 2.97032 33.3991 0.545595 33.3991 0.545595C32.1466 1.28278 31.0428 1.69177 30.2114 1.91846C29.7439 2.04746 29.3623 2.11725 29.0878 2.15616C27.8275 0.825582 26.0677 0 24.1198 0C20.2871 0 17.1795 3.19871 17.1795 7.14602C17.1795 7.28813 17.1832 7.42939 17.1922 7.56939C17.2107 7.91154 17.253 8.24778 17.3183 8.57472C15.4632 8.54638 8.76691 7.96061 3.21797 1.32423C3.21797 1.32423 0.128012 6.87492 5.32286 10.6666C5.32286 10.6666 3.21797 10.5989 2.10062 9.78644C2.10062 9.78644 1.77199 15.135 7.75514 16.8267C7.75514 16.8267 5.65149 17.3689 4.59863 16.8948C4.59863 16.8948 5.65108 21.4981 10.9112 21.8373C10.9112 21.8373 7.13855 25.3934 0.977936 24.8817C4.00792 26.8568 7.60027 28 11.4518 28C22.2815 28 31.0609 18.9613 31.0609 7.81131C31.0609 7.67216 31.0596 7.53301 31.0568 7.39386C31.0596 7.31139 31.0609 7.22934 31.0609 7.14602C31.0609 7.08808 31.0596 7.03013 31.0588 6.97219C33.061 5.59848 34.3529 3.32094 34.3529 3.32094Z" fill="#AEA8A8"/>
</svg>
