<svg width="37" height="25" viewBox="0 0 37 25" fill="none" xmlns="http://www.w3.org/2000/svg">
<path d="M35.3589 4.11641C34.9442 2.63398 33.7292 1.46546 32.1883 1.06628C29.3731 0.325195 18.1122 0.325195 18.1122 0.325195C18.1122 0.325195 6.85167 0.325195 4.03646 1.03803C2.52525 1.43695 1.28054 2.63425 0.865818 4.11641C0.125031 6.82412 0.125031 12.4397 0.125031 12.4397C0.125031 12.4397 0.125031 18.0835 0.865818 20.7629C1.28081 22.2451 2.4956 23.4139 4.03674 23.813C6.88132 24.5541 18.1125 24.5541 18.1125 24.5541C18.1125 24.5541 29.3731 24.5541 32.1883 23.8413C33.7294 23.4424 34.9442 22.2736 35.3592 20.7914C36.1 18.0835 36.1 12.4682 36.1 12.4682C36.1 12.4682 36.1296 6.82412 35.3589 4.11641Z" fill="#AEA8A8"/>
<path d="M14.5282 17.6228L23.8922 11.8246L14.5282 6.02637V17.6228Z" fill="#CBCBCB"/>
</svg>
